<?xml version="1.0" encoding="utf-8"?>
<!-- Generator: Adobe Illustrator 19.0.0, SVG Export Plug-In . SVG Version: 6.00 Build 0)  -->
<svg version="1.1"
	 id="Lager_1" xmlns:inkscape="http://www.inkscape.org/namespaces/inkscape" xmlns:cc="http://creativecommons.org/ns#" xmlns:rdf="http://www.w3.org/1999/02/22-rdf-syntax-ns#" xmlns:svg="http://www.w3.org/2000/svg" xmlns:sodipodi="http://sodipodi.sourceforge.net/DTD/sodipodi-0.dtd" xmlns:dc="http://purl.org/dc/elements/1.1/" inkscape:version="0.91 r13725" sodipodi:docname="triggerbee_neg.svg"
	 xmlns="http://www.w3.org/2000/svg" xmlns:xlink="http://www.w3.org/1999/xlink" x="0px" y="0px" viewBox="-735 255.4 449 90.6"
	 style="enable-background:new -735 255.4 449 90.6;" xml:space="preserve">
<style type="text/css">
	.st0{fill:#0F0F0F;}
</style>
<sodipodi:namedview  guidetolerance="10" id="namedview6746" pagecolor="#ffffff" gridtolerance="10" bordercolor="#666666" borderopacity="1" objecttolerance="10" inkscape:cx="309.3564" inkscape:cy="209.75" inkscape:zoom="0.48546952" showgrid="false" inkscape:pageopacity="0" inkscape:window-width="640" inkscape:window-maximized="0" inkscape:current-layer="Lager_1" inkscape:pageshadow="2" inkscape:window-height="480" inkscape:window-x="0" inkscape:window-y="0">
	</sodipodi:namedview>
<g id="g6722" transform="matrix(1.3075186,0,0,1.3075186,-122.33529,-223.12385)">
	<path id="path6724" inkscape:connector-curvature="0" class="st0" d="M-427.5,371.5c-16.1,0-29.1,13-29.1,29.1
		c0,16.1,13,29.1,29.1,29.1s29.1-13,29.1-29.1C-398.4,384.5-411.5,371.5-427.5,371.5z M-430.5,382.7c2.1-2.1,4.8-1.8,6.6,0
		s2.2,4.4,0,6.6s-10.4,3.8-10.4,3.8S-432.5,384.7-430.5,382.7z M-423.9,418.5c-1.8,1.8-4.4,2.2-6.6,0s-3.8-10.5-3.8-10.5
		s8.4,1.8,10.5,3.8C-421.8,414-422,416.7-423.9,418.5z M-420.4,402.3c-0.7,2-2.6,3.4-5,3.4c-0.1,0-0.2,0-0.3,0l0,0h-6.7
		c-2.9,0-5.3-2.4-5.3-5.3c0-2.9,2.4-5.3,5.3-5.3h6.7l0,0c0.1,0,0.2,0,0.3,0c2.2,0,4.2,1.4,5,3.4c2.8,0.8,5.4,1.8,5.4,1.8
		S-417.7,401.5-420.4,402.3z"/>
	<path id="path6726" inkscape:connector-curvature="0" class="st0" d="M-384.7,393.7h-8v-6.5h23.4v6.5h-8v20.2h-7.4V393.7z"/>
	<path id="path6728" inkscape:connector-curvature="0" class="st0" d="M-365.4,387.3h12.6c4.1,0,6.9,1,8.6,2.9
		c1.5,1.5,2.3,3.6,2.3,6.2v0.1c0,4.1-2.2,6.8-5.4,8.2l6.3,9.3h-8.6l-5.4-8.1h-0.1h-3.1v8.1h-7.4L-365.4,387.3L-365.4,387.3z
		 M-353.2,400c2.5,0,3.9-1.2,3.9-3.1v-0.1c0-2.1-1.5-3.1-4-3.1h-4.8v6.4L-353.2,400L-353.2,400z"/>
	<path id="path6730" inkscape:connector-curvature="0" class="st0" d="M-337.4,387.3h7.4v26.6h-7.4V387.3L-337.4,387.3z"/>
	<path id="path6732" inkscape:connector-curvature="0" class="st0" d="M-326.2,400.7L-326.2,400.7c0-7.8,6.1-13.9,14.3-13.9
		c4.6,0,8,1.4,10.8,3.9l-4.3,5.2c-1.9-1.6-3.8-2.5-6.4-2.5c-3.8,0-6.8,3.2-6.8,7.3v0.1c0,4.3,3,7.4,7.2,7.4c1.8,0,3.1-0.4,4.2-1.1
		v-3.2h-5.3v-5.4h12.2v12c-2.8,2.3-6.7,4.1-11.6,4.1C-320.1,414.4-326.2,408.8-326.2,400.7L-326.2,400.7z"/>
	<path id="path6734" inkscape:connector-curvature="0" class="st0" d="M-296.9,400.7L-296.9,400.7c0-7.8,6.1-13.9,14.3-13.9
		c4.6,0,8,1.4,10.8,3.9l-4.3,5.2c-1.9-1.6-3.8-2.5-6.4-2.5c-3.8,0-6.8,3.2-6.8,7.3v0.1c0,4.3,3,7.4,7.2,7.4c1.8,0,3.1-0.4,4.2-1.1
		v-3.2h-5.3v-5.4h12.2v12c-2.8,2.3-6.7,4.1-11.6,4.1C-290.7,414.4-296.9,408.8-296.9,400.7L-296.9,400.7z"/>
	<path id="path6736" inkscape:connector-curvature="0" class="st0" d="M-266.2,387.3h21.4v6.2h-14.1v4h12.8v5.8h-12.8v4.2h14.3v6.2
		h-21.6L-266.2,387.3L-266.2,387.3z"/>
	<path id="path6738" inkscape:connector-curvature="0" class="st0" d="M-240.2,387.3h12.6c4.1,0,6.9,1,8.6,2.9
		c1.5,1.5,2.3,3.6,2.3,6.2v0.1c0,4.1-2.2,6.8-5.4,8.2l6.3,9.3h-8.6l-5.4-8.1h-0.1h-3.1v8.1h-7.4L-240.2,387.3L-240.2,387.3z
		 M-228,400c2.5,0,3.9-1.2,3.9-3.1v-0.1c0-2.1-1.5-3.1-4-3.1h-4.8v6.4L-228,400L-228,400z"/>
	<path id="path6740" inkscape:connector-curvature="0" class="st0" d="M-212.2,387.3h13.7c3.4,0,5.7,0.8,7.3,2.4
		c1,1,1.7,2.5,1.7,4.3v0.1c0,3.1-1.8,4.9-4.1,5.9c3.2,1,5.3,2.9,5.3,6.5v0.1c0,4.6-3.8,7.4-10.1,7.4h-13.8L-212.2,387.3
		L-212.2,387.3z M-200.4,397.9c2.2,0,3.5-0.8,3.5-2.3v-0.1c0-1.4-1.1-2.3-3.4-2.3h-4.8v4.6L-200.4,397.9L-200.4,397.9z M-199.4,408
		c2.2,0,3.5-0.9,3.5-2.4v-0.1c0-1.4-1.1-2.4-3.6-2.4h-5.6v4.9H-199.4z"/>
	<path id="path6742" inkscape:connector-curvature="0" class="st0" d="M-184.6,387.3h21.4v6.2h-14.1v4h12.8v5.8h-12.8v4.2h14.3v6.2
		h-21.6L-184.6,387.3L-184.6,387.3z"/>
	<path id="path6744" inkscape:connector-curvature="0" class="st0" d="M-158.6,387.3h21.4v6.2h-14.2v4h12.8v5.8h-12.8v4.2h14.3v6.2
		h-21.6L-158.6,387.3L-158.6,387.3z"/>
</g>
</svg>
