<?xml version="1.0" encoding="UTF-8" standalone="no"?>
<!DOCTYPE svg PUBLIC "-//W3C//DTD SVG 1.1//EN" "http://www.w3.org/Graphics/SVG/1.1/DTD/svg11.dtd">
<svg width="100%" height="100%" viewBox="0 0 3508 3525" version="1.1" xmlns="http://www.w3.org/2000/svg" xmlns:xlink="http://www.w3.org/1999/xlink" xml:space="preserve" xmlns:serif="http://www.serif.com/" style="fill-rule:evenodd;clip-rule:evenodd;stroke-linejoin:round;stroke-miterlimit:2;">
    <path d="M1619.888,21.748C1621.709,196.399 1619.952,1713.934 1619.952,1713.934C1619.952,1713.934 866.995,2475.154 430.624,2907.863C-408.64,1995.417 -13.812,203.392 1619.888,21.748Z" style="fill:rgb(84,95,127);"/>
    <g transform="matrix(1,0,0,1,-279.888267,88.470395)">
        <path d="M895.793,2995.751L1993.639,1888.371L3138.115,3029.531C2537.804,3514.374 1620.119,3600.066 895.793,2995.751Z" style="fill:rgb(112,194,132);"/>
    </g>
    <path d="M1872.224,18.021C1872.66,61.379 1870.228,1639.048 1870.228,1639.048C1870.228,1639.048 3327.532,1639.889 3492.85,1640.044C3365.075,521.36 2516.45,66.219 1872.224,18.021Z" style="fill:rgb(238,119,89);"/>
    <path d="M3493.974,1893.114L1994.004,1891.273L3040.207,2946.484C3311.73,2651.797 3476.757,2265.797 3493.974,1893.114Z" style="fill:rgb(239,195,24);"/>
</svg>
