<?xml version="1.0" encoding="UTF-8"?>
<svg id="Layer_2" data-name="Layer 2" xmlns="http://www.w3.org/2000/svg" viewBox="0 0 42.07 42.07">
  <defs>
    <style>
      .cls-1 {
        fill: #4285f4;
      }

      .cls-2 {
        fill: #246fdb;
      }

      .cls-3 {
        fill: #8ab4f8;
      }
    </style>
  </defs>
  <g id="Layer_1-2" data-name="Layer 1">
    <g>
      <path class="cls-3" d="M24.7,40.47l-7.3-7.31,15.69-15.85,7.44,7.44-15.83,15.73Z"/>
      <path class="cls-1" d="M24.75,8.98l-7.44-7.44L1.54,17.31c-2.05,2.05-2.06,5.38,0,7.43h0s15.77,15.77,15.77,15.77l7.3-7.33-11.92-12.15,12.06-12.06Z"/>
      <path class="cls-3" d="M40.52,17.31L24.75,1.54c-2.05-2.05-5.38-2.05-7.44,0-2.05,2.05-2.05,5.38,0,7.44l15.78,15.77c2.05,2.05,5.38,2.05,7.44,0,2.05-2.05,2.05-5.38,0-7.44h0Z"/>
      <circle class="cls-2" cx="20.97" cy="36.86" r="5.21"/>
    </g>
  </g>
</svg>
