<?xml version="1.0" encoding="UTF-8"?>
<svg id="uuid-c2786c12-53cc-4e7f-a781-41df77348a58" data-name="Layer 2" xmlns="http://www.w3.org/2000/svg" viewBox="0 0 76.1 76.1">
  <g id="uuid-d6202161-3bb2-400b-b9fd-d089a4ebd71e" data-name="Lager 1">
    <path id="uuid-5135890f-c2db-4068-ab72-a3011f68dca9" data-name="path6724" d="M38.05,0C17,0,0,17,0,38.05s17,38.05,38.05,38.05,38.05-17,38.05-38.05S58.97,0,38.05,0ZM34.13,14.64c2.75-2.75,6.28-2.35,8.63,0s2.88,5.75,0,8.63-13.6,4.97-13.6,4.97c0,0,2.35-10.98,4.97-13.6ZM42.76,61.45c-2.35,2.35-5.75,2.88-8.63,0s-4.97-13.73-4.97-13.73c0,0,10.98,2.35,13.73,4.97,2.62,2.88,2.35,6.41-.13,8.76ZM47.33,40.27c-.92,2.62-3.4,4.45-6.54,4.45h-9.15c-3.79,0-6.93-3.14-6.93-6.93s3.14-6.93,6.93-6.93h9.15c2.88,0,5.49,1.83,6.54,4.45,3.66,1.05,7.06,2.35,7.06,2.35,0,0-3.53,1.57-7.06,2.62Z"/>
  </g>
</svg>
