<?xml version="1.0" encoding="UTF-8"?><svg xmlns="http://www.w3.org/2000/svg" xmlns:xlink="http://www.w3.org/1999/xlink" viewBox="0 0 198.99 223.69" height='30' width='30'><defs><style>.f{fill:url(#d);}.g{fill:url(#e);mix-blend-mode:overlay;opacity:.2;}.h{fill:#231f20;}.i{fill:#141414;}.j{fill:#1c1c1c;}.k{isolation:isolate;}</style><radialGradient id="d" cx="151.1" cy="33.17" fx="151.1" fy="33.17" r="212.27" gradientTransform="matrix(1, 0, 0, 1, 0, 0)" gradientUnits="userSpaceOnUse"><stop offset="0" stop-color="#ffea6a"/><stop offset="1" stop-color="#ffb955"/></radialGradient><linearGradient id="e" x1="100.75" y1="223.68" x2="98.56" y2="26.09" gradientTransform="matrix(1, 0, 0, 1, 0, 0)" gradientUnits="userSpaceOnUse"><stop offset="0" stop-color="#ffea6a"/><stop offset="1" stop-color="#ffb955"/></linearGradient></defs><g style="isolation:isolate;"><g id="a"/><g id="b"><g id="c"><g><g><g><path d="M99.49,223.69c88.59,0,99.49-76.45,99.49-112.38,0-35.93-3.57-45.95-15.77-59.53-23.09-25.7-83.73-25.7-83.73-25.7,0,0-17.33,0-36.98,3.92-17.12,3.42-36,9.81-46.75,21.77C3.57,65.36,0,75.38,0,111.31s10.91,112.38,99.49,112.38Z" style="fill:url(#d);"/><path d="M99.49,223.69c88.59,0,99.49-76.45,99.49-112.38,0-35.93-3.57-45.95-15.77-59.53-23.09-25.7-83.73-25.7-83.73-25.7,0,0-17.33,0-36.98,3.92-17.12,3.42-36,9.81-46.75,21.77C3.57,65.36,0,75.38,0,111.31s10.91,112.38,99.49,112.38Z" style="fill:url(#e); mix-blend-mode:overlay; opacity:.2;"/></g><circle cx="58.57" cy="96.29" r="20" style="fill:#1c1c1c;"/><circle cx="146.11" cy="96.29" r="20" style="fill:#1c1c1c;"/><g><path d="M50.61,39.06c-2.2,0-4.22-1.46-4.82-3.69-1.25-4.58-6.06-17.11-13.13-19.98-1.63-.66-4.29-1.26-8.52,1.23-2.38,1.4-5.45,.6-6.84-1.78-1.4-2.38-.6-5.45,1.78-6.84,7.43-4.37,13.56-3.43,17.38-1.86,12.88,5.26,18.4,24.45,18.99,26.62,.72,2.67-.85,5.41-3.52,6.13-.44,.12-.88,.18-1.31,.18Z" style="fill:#231f20;"/><circle cx="21.6" cy="12.31" r="12.31" style="fill:#141414;"/></g><g><path d="M154.3,39.06c-.43,0-.88-.06-1.31-.18-2.66-.72-4.24-3.46-3.51-6.13,.59-2.17,6.11-21.36,18.99-26.62,3.83-1.56,9.95-2.51,17.38,1.86,2.38,1.4,3.18,4.46,1.78,6.84-1.4,2.38-4.46,3.18-6.84,1.78-4.24-2.49-6.89-1.9-8.52-1.23-7.08,2.88-11.88,15.4-13.13,19.98-.61,2.22-2.62,3.69-4.82,3.69Z" style="fill:#231f20;"/><circle cx="183.31" cy="12.31" r="12.31" style="fill:#141414;"/></g></g><path d="M135.09,160.71H63.9c-3.04,0-5.5-2.46-5.5-5.5s2.46-5.5,5.5-5.5h71.18c3.04,0,5.5,2.46,5.5,5.5s-2.46,5.5-5.5,5.5Z" style="fill:#231f20;"/></g></g></g></g></svg>