<?xml version="1.0" encoding="UTF-8"?><svg xmlns="http://www.w3.org/2000/svg" xmlns:xlink="http://www.w3.org/1999/xlink" viewBox="0 0 198.99 265.38" height='30' width='30'><defs><style>.j{fill:url(#d);}.k{fill:url(#g);}.l{fill:url(#f);}.m{fill:url(#i);}.n{fill:url(#h);}.o{fill:url(#e);mix-blend-mode:overlay;opacity:.2;}.p{fill:#f4c8a6;}.q{fill:#231f20;}.r{fill:#141414;}.s{fill:#1c1c1c;}.t{isolation:isolate;}</style><radialGradient id="d" cx="151.1" cy="74.86" fx="151.1" fy="74.86" r="212.27" gradientTransform="matrix(1, 0, 0, 1, 0, 0)" gradientUnits="userSpaceOnUse"><stop offset="0" stop-color="#ffea6a"/><stop offset="1" stop-color="#ffb955"/></radialGradient><linearGradient id="e" x1="100.75" y1="265.37" x2="98.56" y2="67.78" gradientTransform="matrix(1, 0, 0, 1, 0, 0)" gradientUnits="userSpaceOnUse"><stop offset="0" stop-color="#ffea6a"/><stop offset="1" stop-color="#ffb955"/></linearGradient><linearGradient id="f" x1="99.61" y1="5.01" x2="99.61" y2="103.18" gradientTransform="matrix(1, 0, 0, 1, 0, 0)" gradientUnits="userSpaceOnUse"><stop offset="0" stop-color="#ed9b00"/><stop offset="1" stop-color="#ff7800"/></linearGradient><linearGradient id="g" x1="99.81" y1="75.18" x2="99.81" y2="107.24" gradientTransform="matrix(1, 0, 0, 1, 0, 0)" gradientUnits="userSpaceOnUse"><stop offset="0" stop-color="#d16605"/><stop offset="1" stop-color="#ed8000"/></linearGradient><linearGradient id="h" x1="100.13" y1="83.12" x2="100.13" y2="5.42" gradientTransform="matrix(1, 0, 0, 1, 0, 0)" gradientUnits="userSpaceOnUse"><stop offset="0" stop-color="#d66b13"/><stop offset="1" stop-color="#ed8000"/></linearGradient><linearGradient id="i" x1="99.61" y1="1.33" x2="99.61" y2="94.18" xlink:href="#f"/></defs><g style="isolation:isolate;"><g id="a"/><g id="b"><g id="c"><g><g><g><path d="M99.49,265.38c88.59,0,99.49-76.45,99.49-112.38,0-35.93-3.57-45.95-15.77-59.53-23.09-25.7-83.73-25.7-83.73-25.7,0,0-17.33,0-36.98,3.92-17.12,3.42-36,9.81-46.75,21.77C3.57,107.05,0,117.07,0,153s10.91,112.38,99.49,112.38Z" style="fill:url(#d);"/><path d="M99.49,265.38c88.59,0,99.49-76.45,99.49-112.38,0-35.93-3.57-45.95-15.77-59.53-23.09-25.7-83.73-25.7-83.73-25.7,0,0-17.33,0-36.98,3.92-17.12,3.42-36,9.81-46.75,21.77C3.57,107.05,0,117.07,0,153s10.91,112.38,99.49,112.38Z" style="fill:url(#e); mix-blend-mode:overlay; opacity:.2;"/></g><circle cx="59.5" cy="136.43" r="20" style="fill:#1c1c1c;"/><circle cx="140.18" cy="137.98" r="20" style="fill:#1c1c1c;"/><g><path d="M50.61,80.75c-2.2,0-4.22-1.46-4.82-3.69h0c-1.25-4.58-6.05-17.11-13.13-19.98-1.63-.66-4.29-1.26-8.52,1.23-2.38,1.4-5.44,.6-6.84-1.78-1.4-2.38-.6-5.44,1.78-6.84,7.43-4.37,13.56-3.42,17.38-1.86,12.88,5.26,18.4,24.45,18.99,26.62,.72,2.67-.85,5.41-3.52,6.13-.44,.12-.88,.18-1.31,.18Z" style="fill:#231f20;"/><circle cx="21.6" cy="54" r="12.31" style="fill:#141414;"/></g><g><path d="M154.3,80.75c-.43,0-.88-.06-1.31-.18-2.66-.72-4.24-3.46-3.51-6.13,.59-2.17,6.11-21.36,18.99-26.62,3.83-1.56,9.95-2.51,17.38,1.86,2.38,1.4,3.18,4.46,1.78,6.84-1.4,2.38-4.46,3.18-6.84,1.78-4.23-2.49-6.89-1.9-8.52-1.23-7.08,2.88-11.88,15.4-13.13,19.98-.61,2.22-2.62,3.69-4.82,3.69Z" style="fill:#231f20;"/><circle cx="183.31" cy="54" r="12.31" style="fill:#141414;"/></g><g><path d="M172.59,82.32c0,.9-.01,1.79-.04,2.68-.09,2.65-.3,5.27-.63,7.85-10.23,5.71-31.97,12.95-76.53,12.95-39.71,0-58.72-5.75-67.8-11.04-.49-3.17-.79-6.41-.9-9.69-.03-.91-.05-1.83-.05-2.75,0-31.87,18.25-59.23,44.3-71.02,1.59-.72,3.22-1.38,4.87-1.99,7.46-2.72,15.47-4.2,23.81-4.2,8.81,0,17.26,1.65,25.08,4.68,1.4,.54,2.78,1.13,4.13,1.76,25.76,11.92,43.76,39.12,43.76,70.77Z" style="fill:url(#f);"/><path d="M180.35,86.06s.57,3.65-2.07,5.74c-1.23,.97-3.57,2.6-5.69,3.78-10.23,5.71-31.44,11.65-76,11.65-39.71,0-60.87-6.26-69.95-11.55-1.8-1.05-4.66-3.1-6.41-5.2-1.36-1.63-.92-4.43-.92-4.43l7.38-.99,48.4-6.52,25.05-3.37,25.04,3.4,47.37,6.43,7.8,1.06Z" style="fill:url(#g);"/><path d="M132.28,81.97c-10.16,1.82-20.89,2.8-32,2.8s-22.04-1-32.29-2.85V21.06c0-3.52,1.06-6.86,2.94-9.75,1.59-.72,3.22-1.38,4.87-1.99,7.46-2.72,15.47-4.2,23.81-4.2,8.81,0,17.26,1.65,25.08,4.68,1.4,.54,2.78,1.13,4.13,1.76,1.09,2.08,1.72,4.39,1.78,6.8l1.67,63.62Z" style="fill:url(#h);"/><path d="M124.56,81.99c-7.88,1.81-16.22,2.78-24.84,2.78s-17.12-.99-25.07-2.83V21.59c0-8.22,4.57-15.52,11.34-18.09l4.9-1.86c5.73-2.18,11.91-2.18,17.65-.01l4.76,1.8c5.83,2.2,9.82,8.41,9.96,15.48l1.3,63.09Z" style="fill:url(#i);"/><path d="M24.76,89.45c1.4,.77,2.88,1.37,4.37,1.94,1.49,.56,3,1.06,4.52,1.53l1.14,.34c.38,.12,.76,.22,1.15,.33l1.15,.32,1.16,.3c1.54,.4,3.09,.75,4.64,1.09,.39,.09,.78,.17,1.17,.25l1.17,.24,.58,.12,.59,.11,1.17,.22c.78,.15,1.56,.28,2.35,.42l1.17,.2,1.18,.18,1.18,.18,.59,.09c.2,.03,.39,.06,.59,.08l2.36,.33c.79,.11,1.58,.2,2.37,.3l1.18,.15,1.19,.13c6.32,.7,12.66,1.19,19.02,1.48l2.38,.1c.79,.03,1.59,.07,2.38,.09l2.39,.07c.8,.02,1.59,.05,2.39,.06l2.39,.04,1.19,.02h1.19l4.77,.04,4.77-.02,4.77-.08c.4,0,.8-.02,1.19-.03l1.19-.03,2.39-.07,4.77-.19,2.38-.12c.79-.04,1.59-.08,2.38-.13l2.38-.15c.79-.05,1.59-.1,2.38-.17l2.38-.19,.59-.05,.59-.05,1.19-.11,1.19-.11c.4-.04,.79-.07,1.19-.11l2.37-.25c.79-.08,1.58-.18,2.37-.27l1.18-.14,.59-.07,.59-.08,2.36-.32c.79-.11,1.57-.23,2.36-.34,3.14-.48,6.28-1.02,9.39-1.67,3.11-.64,6.21-1.39,9.27-2.27,1.53-.45,3.04-.93,4.54-1.47,1.5-.54,2.99-1.12,4.41-1.85-.67,.43-1.39,.8-2.1,1.16-.36,.17-.72,.35-1.08,.52l-.55,.25-.55,.24c-1.47,.64-2.96,1.21-4.47,1.75-3.02,1.06-6.1,1.97-9.21,2.76-3.11,.79-6.24,1.47-9.39,2.06-.79,.14-1.58,.29-2.37,.43l-2.37,.39-.59,.1-.59,.09-1.19,.18c-.79,.12-1.58,.24-2.38,.34l-2.38,.31c-.4,.05-.8,.1-1.19,.14l-1.19,.14c-1.59,.2-3.19,.34-4.78,.5-.8,.08-1.6,.15-2.39,.21l-2.39,.2c-.8,.06-1.6,.11-2.4,.16l-2.4,.16c-6.4,.37-12.8,.55-19.2,.55-1.6,0-3.2-.02-4.8-.03h-.6l-.6-.02-1.2-.03-2.4-.05c-.8-.01-1.6-.05-2.4-.08l-2.4-.09c-.8-.03-1.6-.07-2.4-.11l-2.4-.13-.6-.03-.6-.04-1.2-.08-2.4-.17c-1.6-.13-3.19-.26-4.79-.42l-2.39-.24c-.4-.04-.8-.08-1.2-.13l-1.19-.14-2.39-.29-2.38-.33-1.19-.16-1.19-.18c-.79-.13-1.58-.24-2.38-.37l-2.37-.41c-.2-.03-.4-.07-.59-.1l-.59-.11-1.18-.23-1.18-.23-1.18-.25c-.78-.17-1.57-.32-2.35-.51-1.56-.35-3.12-.74-4.67-1.14-1.55-.42-3.09-.85-4.62-1.33l-1.15-.36-1.14-.38c-.76-.25-1.51-.53-2.27-.8-1.5-.56-2.99-1.16-4.45-1.83l-.55-.25-.54-.26c-.36-.17-.72-.36-1.07-.54-.71-.38-1.41-.76-2.07-1.21Z" style="fill:#f4c8a6;"/></g></g><path d="M58.82,181.58c12.21,9.79,25.53,15.55,40.67,15.54,15.15-.01,28.43-5.76,40.67-15.54-2.4,8.04-8.13,15.14-15.44,20.02-22.09,15.24-57.53,6.41-65.91-20.02h0Z" style="fill:#231f20;"/></g></g></g></g></svg>